<?xml version="1.0" standalone="no"?>
<!DOCTYPE svg PUBLIC "-//W3C//DTD SVG 20010904//EN"
 "http://www.w3.org/TR/2001/REC-SVG-20010904/DTD/svg10.dtd">
<svg version="1.0" xmlns="http://www.w3.org/2000/svg"
 width="1632.000000pt" height="640.000000pt" viewBox="0 0 1632.000000 640.000000"
 preserveAspectRatio="xMidYMid meet">

<g transform="translate(0.000000,640.000000) scale(0.100000,-0.100000)"
fill="#000000" stroke="none">
<path d="M7830 5342 l0 -129 -97 -17 c-417 -74 -843 -340 -1109 -691 -100
-133 -143 -201 -209 -334 -100 -202 -151 -365 -181 -580 -22 -161 -15 -490 15
-646 110 -581 498 -1088 1036 -1351 140 -68 345 -135 505 -165 163 -30 502
-33 645 -6 324 61 593 178 850 370 l100 74 270 -267 c156 -153 284 -272 302
-279 45 -18 96 -6 133 30 26 26 30 38 30 82 l0 51 -282 277 -283 276 56 69
c217 269 351 573 405 919 20 126 23 437 5 560 -87 605 -454 1135 -986 1423
-161 87 -426 183 -448 163 -11 -11 -59 -190 -55 -208 2 -10 28 -23 73 -35 84
-23 230 -86 340 -146 445 -245 762 -715 836 -1237 18 -128 15 -378 -6 -500
-61 -365 -213 -657 -474 -915 -275 -271 -608 -429 -1006 -476 -475 -57 -989
124 -1339 470 -233 230 -386 504 -462 831 -27 114 -29 133 -29 355 0 206 3
248 23 342 106 506 424 928 873 1162 163 85 453 174 465 142 2 -6 5 -61 6
-123 l3 -112 50 38 c28 21 133 100 235 176 102 76 193 146 204 155 18 18 15
21 -115 117 -159 117 -366 263 -374 263 -3 0 -5 -58 -5 -128z"/>
<path d="M8062 4559 c-102 -51 -142 -161 -100 -272 11 -28 7 -33 -113 -153
l-124 -124 -141 0 c-197 0 -189 8 -190 -190 l-1 -152 -120 -120 -120 -120 -56
17 c-68 20 -112 13 -169 -25 -60 -41 -88 -92 -88 -163 0 -70 17 -112 61 -154
38 -36 77 -53 118 -53 16 0 33 -6 39 -12 5 -7 33 -89 62 -183 28 -93 56 -183
60 -198 8 -25 6 -32 -20 -54 l-30 -25 0 -154 c0 -205 -11 -194 195 -194 142 0
157 2 175 20 11 11 20 27 20 36 0 9 6 14 13 11 6 -2 98 -37 202 -78 105 -40
196 -77 203 -82 6 -5 12 -20 12 -34 0 -13 9 -40 19 -61 68 -132 239 -151 339
-38 54 61 61 125 28 231 -6 16 18 45 118 145 l125 124 135 -3 c147 -3 188 8
200 51 3 13 6 82 6 153 l1 130 117 123 117 123 37 -15 c135 -57 288 49 288
199 0 36 -40 123 -66 147 -29 25 -89 48 -127 48 l-33 0 -62 168 c-93 252 -87
228 -63 258 19 24 21 40 21 174 0 197 7 190 -196 190 -136 0 -152 -2 -172 -20
-12 -11 -25 -20 -29 -20 -4 0 -94 35 -200 77 -119 47 -194 83 -197 92 -2 9 -7
33 -11 54 -19 112 -172 180 -283 126z m138 -74 c45 -23 70 -62 70 -110 0 -48
-25 -87 -70 -110 -80 -41 -170 19 -170 112 0 45 20 77 64 104 37 23 67 24 106
4z m351 -284 c186 -76 194 -80 197 -108 l3 -30 -173 -37 c-95 -21 -218 -48
-272 -61 -55 -13 -103 -22 -108 -19 -4 3 -8 54 -8 114 l0 108 45 22 c25 12 58
37 73 56 15 19 32 34 38 34 5 0 98 -35 205 -79z m-477 -16 l36 -15 0 -125 0
-124 -37 -9 c-34 -8 -205 -47 -259 -59 -18 -4 -22 1 -28 43 l-6 48 127 128
c70 71 128 128 129 128 1 0 18 -7 38 -15z m676 -237 c0 -29 -23 -56 -188 -226
l-187 -192 -87 0 -88 0 0 133 c0 72 -3 141 -5 152 -3 11 -2 25 2 31 7 10 495
129 541 133 7 1 12 -12 12 -31z m128 -110 c-3 -13 -29 -139 -59 -280 l-53
-258 -168 0 -168 0 0 87 0 88 192 192 c174 175 196 193 227 193 29 0 33 -3 29
-22z m202 -145 c33 -93 68 -187 77 -211 l16 -43 -37 -33 c-20 -19 -43 -50 -51
-70 l-15 -36 -105 0 c-57 0 -106 3 -108 8 -3 5 103 523 112 550 1 1 12 2 25 2
22 0 29 -15 86 -167z m-970 -13 l0 -150 -90 0 c-83 0 -93 -2 -115 -25 -23 -22
-25 -32 -25 -115 l0 -90 -160 0 c-88 0 -160 2 -160 4 0 6 60 268 66 289 4 13
16 17 54 17 68 0 97 27 108 100 l7 55 140 32 c77 17 148 32 158 32 15 1 17
-13 17 -149z m-570 -83 c0 -17 -60 -279 -66 -289 -3 -5 -57 -8 -119 -8 l-115
0 -15 37 -16 37 118 118 c117 118 118 118 165 118 33 0 48 -4 48 -13z m808
-349 l2 -188 -189 0 -189 0 -4 183 c-2 100 -2 185 0 190 2 4 87 6 190 5 l187
-3 3 -187z m993 109 c21 -14 39 -38 48 -63 13 -36 12 -44 -7 -87 -38 -85 -131
-100 -199 -32 -25 25 -33 41 -33 69 0 109 105 171 191 113z m-2241 -2 c40 -21
60 -53 60 -98 0 -72 -52 -127 -121 -127 -92 0 -148 107 -99 188 31 51 101 67
160 37z m1514 -145 l133 0 -31 -147 c-17 -82 -35 -154 -39 -160 -5 -8 -29 -13
-59 -13 -73 0 -98 -25 -98 -96 0 -42 -4 -54 -17 -58 -69 -19 -295 -68 -298
-64 -3 3 -6 72 -7 154 l-2 149 96 3 c91 3 98 4 118 29 17 21 20 40 20 114 0
88 6 103 38 93 8 -2 73 -4 146 -4z m-1164 -7 c0 -22 -53 -233 -59 -233 -3 0
-44 38 -90 84 l-83 84 12 36 12 36 104 0 c57 0 104 -3 104 -7z m430 -81 l0
-87 -140 -140 -141 -140 -64 67 c-36 38 -65 72 -65 77 0 10 46 219 61 274 l10
37 169 0 170 0 0 -88z m1196 71 c3 -10 10 -26 16 -37 8 -16 -8 -37 -109 -141
-117 -121 -118 -122 -165 -124 -37 -1 -48 3 -48 14 0 8 14 79 30 157 17 77 30
143 30 145 0 1 54 3 120 3 106 0 121 -2 126 -17z m-1806 -218 l104 -105 -18
-87 c-10 -49 -23 -104 -30 -123 -11 -35 -43 -53 -50 -28 -2 7 -34 107 -70 221
-61 191 -68 227 -48 227 4 0 54 -47 112 -105z m838 -166 l2 -165 -161 -38
-162 -38 -66 66 -66 66 140 140 140 141 85 -3 85 -3 3 -166z m-608 -64 l44
-45 -39 -40 c-28 -29 -47 -40 -68 -40 -27 0 -29 2 -23 28 3 15 11 53 17 85 6
31 14 57 18 57 4 0 27 -20 51 -45z m1020 -137 c-1 -41 -6 -49 -124 -171 l-123
-127 -37 15 -37 16 3 121 3 122 130 32 c72 17 142 32 158 33 25 1 27 -1 27
-41z m-870 -13 c24 -24 41 -47 38 -50 -9 -9 -157 -43 -163 -37 -14 15 -1 53
31 90 19 23 39 42 43 42 4 0 27 -20 51 -45z m460 -143 l0 -108 -36 -13 -36
-13 -89 88 c-49 48 -86 90 -83 93 5 5 209 58 232 60 9 1 12 -27 12 -107z
m-300 -19 c18 -21 64 -70 102 -108 60 -62 67 -73 56 -88 -12 -16 -29 -11 -223
64 -116 45 -214 86 -219 90 -19 17 13 32 111 54 133 31 135 31 173 -12z m432
-212 c50 -56 33 -163 -32 -196 -83 -43 -180 16 -180 110 0 81 52 128 134 121
41 -3 55 -9 78 -35z"/>
<path d="M2322 4559 c-182 -32 -358 -126 -474 -254 -45 -49 -112 -174 -126
-235 -47 -201 0 -427 113 -544 112 -115 250 -175 612 -265 321 -81 426 -124
515 -212 69 -68 93 -136 86 -233 -11 -126 -83 -219 -225 -288 -143 -69 -329
-85 -496 -43 -147 38 -290 135 -357 245 -14 22 -30 40 -36 40 -16 0 -244 -108
-244 -116 0 -3 15 -34 32 -68 21 -38 65 -93 118 -146 68 -68 103 -94 172 -128
198 -98 330 -126 558 -119 184 5 269 24 405 92 146 72 238 162 299 290 47 98
61 164 60 285 -3 240 -108 404 -329 515 -121 60 -166 75 -477 155 -376 98
-448 130 -504 226 -40 68 -45 184 -13 269 38 102 147 194 291 246 87 31 312
39 408 14 144 -37 263 -119 331 -228 18 -28 34 -54 35 -56 6 -8 254 121 254
133 0 7 -22 47 -48 87 -102 154 -253 261 -453 320 -62 18 -105 22 -264 25
-104 1 -214 -1 -243 -7z"/>
<path d="M4490 4551 c-156 -35 -294 -96 -406 -181 -322 -242 -488 -606 -471
-1035 6 -152 21 -244 63 -375 184 -584 793 -906 1381 -730 81 25 240 102 300
147 107 80 278 271 259 291 -4 3 -57 36 -119 73 l-112 67 -45 -51 c-104 -121
-193 -189 -313 -238 -370 -154 -790 -3 -999 356 -47 81 -93 203 -112 297 -21
103 -21 333 0 435 65 318 291 571 599 672 38 12 89 16 215 16 155 -1 170 -2
245 -29 143 -49 270 -135 351 -234 25 -31 50 -58 55 -60 5 -2 22 6 38 17 16
12 32 21 35 21 3 0 32 16 63 36 32 20 68 43 81 51 l22 14 -29 43 c-122 176
-333 322 -556 382 -88 24 -122 27 -280 30 -149 3 -195 0 -265 -15z"/>
<path d="M10755 4548 c-3 -7 -4 -542 -3 -1188 l3 -1175 138 -3 137 -3 0 481 0
480 254 0 c261 0 373 9 461 37 213 67 380 243 435 459 28 109 28 311 0 413
-36 130 -86 217 -175 306 -91 91 -179 141 -310 177 -75 21 -104 22 -508 26
-345 2 -428 1 -432 -10z m865 -277 c117 -41 213 -122 255 -214 56 -122 59
-289 8 -399 -38 -81 -74 -123 -145 -169 -101 -65 -157 -74 -448 -74 l-255 0
-3 439 -2 438 277 -4 c183 -4 290 -9 313 -17z"/>
<path d="M12550 3365 l0 -1185 755 0 755 0 0 135 0 135 -612 2 -613 3 -3 428
-2 427 520 0 520 0 0 130 c0 126 -1 130 -22 135 -13 3 -246 4 -518 3 l-495 -3
-3 352 -2 353 612 2 613 3 0 130 0 130 -752 3 -753 2 0 -1185z"/>
</g>
</svg>
